# xmcd CD database file generated by Grip 3.2.0
# 
# Track frame offsets:
#       150
#       6313
#       12952
#       19658
#       26867
#       35465
#       44010
#       53216
#       59900
#       67352
#       75114
#       81028
#       89805
#       93145
#       103381
#       108510
# 
# Disc length: 1553 seconds
# 
# Revision: 3
# Processed by: cddbd v1.5.2PL0 Copyright (c) Steve Scherf et al.
# Submitted via: Grip 3.2.0
# 
DISCID=da060f10
DTITLE=Skruigners - La Cosa Che Non Ha Importanza
DYEAR=1998
DGENRE=Other
TTITLE0=La Cosa Che Non Ha Importanza
TTITLE1=Autodistruzione Cerebrale
TTITLE2=Ricercato
TTITLE3=Autonomo
TTITLE4=Straight Edge
TTITLE5=Non Voglio Essere Niente
TTITLE6=Esaurimento
TTITLE7=Una A Sulla Maglietta
TTITLE8=Anime In Festa
TTITLE9=Delusione Cronica
TTITLE10=Un Altro Cane
TTITLE11=Non E' Un'Assurdità
TTITLE12=No!
TTITLE13=Soltanto Tu
TTITLE14=Rivoluzione Nella Classe
TTITLE15=Jello Fa Stage Diving
EXTD=YEAR: 1998 ID3G: 43
EXTT0=
EXTT1=
EXTT2=
EXTT3=
EXTT4=
EXTT5=
EXTT6=
EXTT7=
EXTT8=
EXTT9=
EXTT10=
EXTT11=
EXTT12=
EXTT13=
EXTT14=
EXTT15=
PLAYORDER=
